<svg version="1.1" viewBox="338.424 143.581 174.071 124.055" fill="none" stroke="none" stroke-linecap="square" stroke-miterlimit="10" xmlns:xlink="http://www.w3.org/1999/xlink" xmlns="http://www.w3.org/2000/svg" width="174.071" height="124.055">
  <clipPath id="g13ac7986193_0_1154.0">
    <path d="m0 0l960.0 0l0 540.0l-960.0 0l0 -540.0z" clip-rule="nonzero" />
  </clipPath>
  <g clip-path="url(#g13ac7986193_0_1154.0)">
    <path fill="#000000" fill-opacity="0.0" d="m0 0l960.0 0l0 540.0l-960.0 0z" fill-rule="evenodd" />
    <path fill="#0b5394" d="m338.9239 205.60892c0 -33.98073 38.743225 -61.527557 86.53543 -61.527557c47.792206 0 86.53543 27.54683 86.53543 61.527557c0 33.980743 -38.743225 61.527557 -86.53543 61.527557c-47.792206 0 -86.53543 -27.546814 -86.53543 -61.527557z" fill-rule="evenodd" />
    <path stroke="#000000" stroke-width="1.0" stroke-linejoin="round" stroke-linecap="butt" d="m338.9239 205.60892c0 -33.98073 38.743225 -61.527557 86.53543 -61.527557c47.792206 0 86.53543 27.54683 86.53543 61.527557c0 33.980743 -38.743225 61.527557 -86.53543 61.527557c-47.792206 0 -86.53543 -27.546814 -86.53543 -61.527557z" fill-rule="evenodd" />
    <path fill="#4a86e8" d="m396.34384 177.40945c0 -11.0457 11.020142 -20.0 24.614166 -20.0c13.594025 0 24.614166 8.9543 24.614166 20.0c0 11.045685 -11.020142 20.0 -24.614166 20.0c-13.594025 0 -24.614166 -8.954315 -24.614166 -20.0z" fill-rule="evenodd" />
    <path stroke="#6d9eeb" stroke-width="8.0" stroke-linejoin="round" stroke-linecap="butt" d="m396.34384 177.40945c0 -11.0457 11.020142 -20.0 24.614166 -20.0c13.594025 0 24.614166 8.9543 24.614166 20.0c0 11.045685 -11.020142 20.0 -24.614166 20.0c-13.594025 0 -24.614166 -8.954315 -24.614166 -20.0z" fill-rule="evenodd" />
  </g>
</svg>