<svg version="1.1" viewBox="372.194 156.909 227.1659 310.669" fill="none" stroke="none" stroke-linecap="square" stroke-miterlimit="10" xmlns:xlink="http://www.w3.org/1999/xlink" xmlns="http://www.w3.org/2000/svg" width="227.1659" height="310.669">
  <clipPath id="g13ac7986193_0_1227.0">
    <path d="m0 0l960.0 0l0 540.0l-960.0 0l0 -540.0z" clip-rule="nonzero" />
  </clipPath>
  <g clip-path="url(#g13ac7986193_0_1227.0)">
    <path fill="#000000" fill-opacity="0.0" d="m0 0l960.0 0l0 540.0l-960.0 0z" fill-rule="evenodd" />
    <path fill="#000000" fill-opacity="0.0" d="m556.7533 419.15485l40.0 -3.086609" fill-rule="evenodd" />
    <path stroke="#000000" stroke-width="12.0" stroke-linejoin="round" stroke-linecap="butt" d="m556.7533 419.15485l40.0 -3.086609" fill-rule="evenodd" />
    <path fill="#000000" fill-opacity="0.0" d="m556.7533 387.15485l35.874023 -14.141724" fill-rule="evenodd" />
    <path stroke="#000000" stroke-width="12.0" stroke-linejoin="round" stroke-linecap="butt" d="m556.7533 387.15485l35.874023 -14.141724" fill-rule="evenodd" />
    <path fill="#000000" fill-opacity="0.0" d="m556.7533 347.15485l40.0 -3.086609" fill-rule="evenodd" />
    <path stroke="#000000" stroke-width="12.0" stroke-linejoin="round" stroke-linecap="butt" d="m556.7533 347.15485l40.0 -3.086609" fill-rule="evenodd" />
    <path fill="#000000" fill-opacity="0.0" d="m556.7533 283.15485l30.771667 19.118134" fill-rule="evenodd" />
    <path stroke="#000000" stroke-width="12.0" stroke-linejoin="round" stroke-linecap="butt" d="m556.7533 283.15485l30.771667 19.118134" fill-rule="evenodd" />
    <path fill="#000000" fill-opacity="0.0" d="m556.7533 251.15486l42.04724 3.9369965" fill-rule="evenodd" />
    <path stroke="#000000" stroke-width="12.0" stroke-linejoin="round" stroke-linecap="butt" d="m556.7533 251.15486l42.04724 3.9369965" fill-rule="evenodd" />
    <path fill="#000000" fill-opacity="0.0" d="m556.7533 211.15486l40.0 -3.0866241" fill-rule="evenodd" />
    <path stroke="#000000" stroke-width="12.0" stroke-linejoin="round" stroke-linecap="butt" d="m556.7533 211.15486l40.0 -3.0866241" fill-rule="evenodd" />
    <path fill="#000000" fill-opacity="0.0" d="m414.80054 184.06824l-40.0 3.0866241" fill-rule="evenodd" />
    <path stroke="#000000" stroke-width="12.0" stroke-linejoin="round" stroke-linecap="butt" d="m414.80054 184.06824l-40.0 3.0866241" fill-rule="evenodd" />
    <path fill="#000000" fill-opacity="0.0" d="m414.80054 216.06824l-35.874023 14.141739" fill-rule="evenodd" />
    <path stroke="#000000" stroke-width="12.0" stroke-linejoin="round" stroke-linecap="butt" d="m414.80054 216.06824l-35.874023 14.141739" fill-rule="evenodd" />
    <path fill="#000000" fill-opacity="0.0" d="m414.80054 256.06824l-40.0 3.086609" fill-rule="evenodd" />
    <path stroke="#000000" stroke-width="12.0" stroke-linejoin="round" stroke-linecap="butt" d="m414.80054 256.06824l-40.0 3.086609" fill-rule="evenodd" />
    <path fill="#000000" fill-opacity="0.0" d="m414.80054 320.06824l-30.771667 -19.118103" fill-rule="evenodd" />
    <path stroke="#000000" stroke-width="12.0" stroke-linejoin="round" stroke-linecap="butt" d="m414.80054 320.06824l-30.771667 -19.118103" fill-rule="evenodd" />
    <path fill="#000000" fill-opacity="0.0" d="m414.80054 352.06824l-42.04724 -3.9370117" fill-rule="evenodd" />
    <path stroke="#000000" stroke-width="12.0" stroke-linejoin="round" stroke-linecap="butt" d="m414.80054 352.06824l-42.04724 -3.9370117" fill-rule="evenodd" />
    <path fill="#000000" fill-opacity="0.0" d="m414.80054 392.06824l-40.0 3.086609" fill-rule="evenodd" />
    <path stroke="#000000" stroke-width="12.0" stroke-linejoin="round" stroke-linecap="butt" d="m414.80054 392.06824l-40.0 3.086609" fill-rule="evenodd" />
    <path fill="#38761d" d="m412.75067 182.36008c0 -13.779846 11.170776 -24.950623 24.950623 -24.950623l99.7995 0c6.6173096 0 12.963623 2.628708 17.642761 7.3078613c4.679199 4.6791534 7.3078613 11.025452 7.3078613 17.642761l0 259.76804c0 13.779846 -11.170776 24.950623 -24.950623 24.950623l-99.7995 0c-13.779846 0 -24.950623 -11.170776 -24.950623 -24.950623z" fill-rule="evenodd" />
    <path stroke="#000000" stroke-width="1.0" stroke-linejoin="round" stroke-linecap="butt" d="m412.75067 182.36008c0 -13.779846 11.170776 -24.950623 24.950623 -24.950623l99.7995 0c6.6173096 0 12.963623 2.628708 17.642761 7.3078613c4.679199 4.6791534 7.3078613 11.025452 7.3078613 17.642761l0 259.76804c0 13.779846 -11.170776 24.950623 -24.950623 24.950623l-99.7995 0c-13.779846 0 -24.950623 -11.170776 -24.950623 -24.950623z" fill-rule="evenodd" />
    <path fill="#000000" d="m428.13123 196.88977l2.5444336 -7.289871l6.661438 -4.5053864l8.233948 0l6.661438 4.5053864l2.5444336 7.289871l-2.5444336 7.289856l-6.661438 4.5053864l-8.233948 0l-6.661438 -4.5053864z" fill-rule="evenodd" />
    <path stroke="#000000" stroke-width="1.0" stroke-linejoin="round" stroke-linecap="butt" d="m428.13123 196.88977l2.5444336 -7.289871l6.661438 -4.5053864l8.233948 0l6.661438 4.5053864l2.5444336 7.289871l-2.5444336 7.289856l-6.661438 4.5053864l-8.233948 0l-6.661438 -4.5053864z" fill-rule="evenodd" />
    <path fill="#000000" d="m468.13123 212.88977l2.5444336 -7.289871l6.661438 -4.5053864l8.233948 0l6.661438 4.5053864l2.5444336 7.289871l-2.5444336 7.289856l-6.661438 4.5053864l-8.233948 0l-6.661438 -4.5053864z" fill-rule="evenodd" />
    <path stroke="#000000" stroke-width="1.0" stroke-linejoin="round" stroke-linecap="butt" d="m468.13123 212.88977l2.5444336 -7.289871l6.661438 -4.5053864l8.233948 0l6.661438 4.5053864l2.5444336 7.289871l-2.5444336 7.289856l-6.661438 4.5053864l-8.233948 0l-6.661438 -4.5053864z" fill-rule="evenodd" />
    <path fill="#000000" d="m508.13123 276.88977l2.5444336 -7.2898865l6.661438 -4.505371l8.233948 0l6.661438 4.505371l2.5444336 7.2898865l-2.5444336 7.289856l-6.661438 4.5054016l-8.233948 0l-6.661438 -4.5054016z" fill-rule="evenodd" />
    <path stroke="#000000" stroke-width="1.0" stroke-linejoin="round" stroke-linecap="butt" d="m508.13123 276.88977l2.5444336 -7.2898865l6.661438 -4.505371l8.233948 0l6.661438 4.505371l2.5444336 7.2898865l-2.5444336 7.289856l-6.661438 4.5054016l-8.233948 0l-6.661438 -4.5054016z" fill-rule="evenodd" />
    <path fill="#000000" d="m516.1312 196.88977l2.5444336 -7.289871l6.661438 -4.5053864l8.233948 0l6.661438 4.5053864l2.5444336 7.289871l-2.5444336 7.289856l-6.661438 4.5053864l-8.233948 0l-6.661438 -4.5053864z" fill-rule="evenodd" />
    <path stroke="#000000" stroke-width="1.0" stroke-linejoin="round" stroke-linecap="butt" d="m516.1312 196.88977l2.5444336 -7.289871l6.661438 -4.5053864l8.233948 0l6.661438 4.5053864l2.5444336 7.289871l-2.5444336 7.289856l-6.661438 4.5053864l-8.233948 0l-6.661438 -4.5053864z" fill-rule="evenodd" />
    <path fill="#000000" d="m444.13123 252.88977l2.5444336 -7.289871l6.661438 -4.5053864l8.233948 0l6.661438 4.5053864l2.5444336 7.289871l-2.5444336 7.289856l-6.661438 4.5054016l-8.233948 0l-6.661438 -4.5054016z" fill-rule="evenodd" />
    <path stroke="#000000" stroke-width="1.0" stroke-linejoin="round" stroke-linecap="butt" d="m444.13123 252.88977l2.5444336 -7.289871l6.661438 -4.5053864l8.233948 0l6.661438 4.5053864l2.5444336 7.289871l-2.5444336 7.289856l-6.661438 4.5054016l-8.233948 0l-6.661438 -4.5054016z" fill-rule="evenodd" />
    <path fill="#000000" d="m452.13123 300.88977l2.5444336 -7.2898865l6.661438 -4.505371l8.233948 0l6.661438 4.505371l2.5444336 7.2898865l-2.5444336 7.289856l-6.661438 4.5054016l-8.233948 0l-6.661438 -4.5054016z" fill-rule="evenodd" />
    <path stroke="#000000" stroke-width="1.0" stroke-linejoin="round" stroke-linecap="butt" d="m452.13123 300.88977l2.5444336 -7.2898865l6.661438 -4.505371l8.233948 0l6.661438 4.505371l2.5444336 7.2898865l-2.5444336 7.289856l-6.661438 4.5054016l-8.233948 0l-6.661438 -4.5054016z" fill-rule="evenodd" />
    <path fill="#000000" d="m500.13123 324.88977l2.5444336 -7.2898865l6.661438 -4.505371l8.233948 0l6.661438 4.505371l2.5444336 7.2898865l-2.5444336 7.289856l-6.661438 4.5054016l-8.233948 0l-6.661438 -4.5054016z" fill-rule="evenodd" />
    <path stroke="#000000" stroke-width="1.0" stroke-linejoin="round" stroke-linecap="butt" d="m500.13123 324.88977l2.5444336 -7.2898865l6.661438 -4.505371l8.233948 0l6.661438 4.505371l2.5444336 7.2898865l-2.5444336 7.289856l-6.661438 4.5054016l-8.233948 0l-6.661438 -4.5054016z" fill-rule="evenodd" />
    <path fill="#000000" d="m508.13123 364.88977l2.5444336 -7.2898865l6.661438 -4.505371l8.233948 0l6.661438 4.505371l2.5444336 7.2898865l-2.5444336 7.289856l-6.661438 4.5054016l-8.233948 0l-6.661438 -4.5054016z" fill-rule="evenodd" />
    <path stroke="#000000" stroke-width="1.0" stroke-linejoin="round" stroke-linecap="butt" d="m508.13123 364.88977l2.5444336 -7.2898865l6.661438 -4.505371l8.233948 0l6.661438 4.505371l2.5444336 7.2898865l-2.5444336 7.289856l-6.661438 4.5054016l-8.233948 0l-6.661438 -4.5054016z" fill-rule="evenodd" />
    <path fill="#000000" d="m436.13123 372.88977l2.5444336 -7.2898865l6.661438 -4.505371l8.233948 0l6.661438 4.505371l2.5444336 7.2898865l-2.5444336 7.289856l-6.661438 4.5054016l-8.233948 0l-6.661438 -4.5054016z" fill-rule="evenodd" />
    <path stroke="#000000" stroke-width="1.0" stroke-linejoin="round" stroke-linecap="butt" d="m436.13123 372.88977l2.5444336 -7.2898865l6.661438 -4.505371l8.233948 0l6.661438 4.505371l2.5444336 7.2898865l-2.5444336 7.289856l-6.661438 4.5054016l-8.233948 0l-6.661438 -4.5054016z" fill-rule="evenodd" />
    <path fill="#000000" d="m460.13123 412.88977l2.5444336 -7.2898865l6.661438 -4.505371l8.233948 0l6.661438 4.505371l2.5444336 7.2898865l-2.5444336 7.289856l-6.661438 4.5054016l-8.233948 0l-6.661438 -4.5054016z" fill-rule="evenodd" />
    <path stroke="#000000" stroke-width="1.0" stroke-linejoin="round" stroke-linecap="butt" d="m460.13123 412.88977l2.5444336 -7.2898865l6.661438 -4.505371l8.233948 0l6.661438 4.505371l2.5444336 7.2898865l-2.5444336 7.289856l-6.661438 4.5054016l-8.233948 0l-6.661438 -4.5054016z" fill-rule="evenodd" />
    <path fill="#000000" d="m500.13123 436.88977l2.5444336 -7.2898865l6.661438 -4.505371l8.233948 0l6.661438 4.505371l2.5444336 7.2898865l-2.5444336 7.289856l-6.661438 4.5054016l-8.233948 0l-6.661438 -4.5054016z" fill-rule="evenodd" />
    <path stroke="#000000" stroke-width="1.0" stroke-linejoin="round" stroke-linecap="butt" d="m500.13123 436.88977l2.5444336 -7.2898865l6.661438 -4.505371l8.233948 0l6.661438 4.505371l2.5444336 7.2898865l-2.5444336 7.289856l-6.661438 4.5054016l-8.233948 0l-6.661438 -4.5054016z" fill-rule="evenodd" />
  </g>
</svg>