<svg version="1.1" viewBox="253.841 151.162 74.9106 83.6585" fill="none" stroke="none" stroke-linecap="square" stroke-miterlimit="10" xmlns:xlink="http://www.w3.org/1999/xlink" xmlns="http://www.w3.org/2000/svg" width="74.9106" height="83.6585">
  <clipPath id="g13ac7986193_0_1015.0">
    <path d="m0 0l960.0 0l0 540.0l-960.0 0l0 -540.0z" clip-rule="nonzero" />
  </clipPath>
  <g clip-path="url(#g13ac7986193_0_1015.0)">
    <path fill="#000000" fill-opacity="0.0" d="m0 0l960.0 0l0 540.0l-960.0 0z" fill-rule="evenodd" />
    <path fill="#000000" fill-opacity="0.0" d="m303.27298 154.06824l-14.11026 44.094498" fill-rule="evenodd" />
    <path stroke="#6aa84f" stroke-width="12.0" stroke-linejoin="round" stroke-linecap="butt" d="m303.27298 154.06824l-14.11026 44.094498" fill-rule="evenodd" />
    <path fill="#000000" fill-opacity="0.0" d="m285.83466 152.021l6.6771545 46.14174" fill-rule="evenodd" />
    <path stroke="#6aa84f" stroke-width="12.0" stroke-linejoin="round" stroke-linecap="butt" d="m285.83466 152.021l6.6771545 46.14174" fill-rule="evenodd" />
    <path fill="#efefef" d="m283.7874 201.07092c0 -1.6061554 1.3020325 -2.9081879 2.9081726 -2.9081879l11.632446 0c0.77130127 0 1.5110168 0.30639648 2.0563965 0.8517914c0.54537964 0.54537964 0.8517761 1.2850952 0.8517761 2.0563965l0 30.341095c0 1.6061554 -1.3020325 2.9081879 -2.9081726 2.9081879l-11.632446 0c-1.6061401 0 -2.9081726 -1.3020325 -2.9081726 -2.9081879z" fill-rule="evenodd" />
    <path stroke="#38761d" stroke-width="1.0" stroke-linejoin="round" stroke-linecap="butt" d="m283.7874 201.07092c0 -1.6061554 1.3020325 -2.9081879 2.9081726 -2.9081879l11.632446 0c0.77130127 0 1.5110168 0.30639648 2.0563965 0.8517914c0.54537964 0.54537964 0.8517761 1.2850952 0.8517761 2.0563965l0 30.341095c0 1.6061554 -1.3020325 2.9081879 -2.9081726 2.9081879l-11.632446 0c-1.6061401 0 -2.9081726 -1.3020325 -2.9081726 -2.9081879z" fill-rule="evenodd" />
    <path fill="#000000" fill-opacity="0.0" d="m288.67978 203.55118c0 -9.171204 -4.6725464 -19.523148 -12.304443 -24.608917c-4.5950317 -3.0620422 -12.90863 -1.2146606 -15.380585 -6.152237" fill-rule="evenodd" />
    <path stroke="#38761d" stroke-width="16.0" stroke-linejoin="round" stroke-linecap="butt" d="m288.67978 203.55118c0 -9.171204 -4.6725464 -19.523148 -12.304443 -24.608917c-4.5950317 -3.0620422 -12.90863 -1.2146606 -15.380585 -6.152237" fill-rule="evenodd" />
    <path fill="#000000" fill-opacity="0.0" d="m293.9134 203.55118c0 -9.171204 4.6725464 -19.523148 12.304443 -24.608917c4.5950317 -3.0620422 12.90863 -1.2146606 15.380585 -6.152237" fill-rule="evenodd" />
    <path stroke="#38761d" stroke-width="16.0" stroke-linejoin="round" stroke-linecap="butt" d="m293.9134 203.55118c0 -9.171204 4.6725464 -19.523148 12.304443 -24.608917c4.5950317 -3.0620422 12.90863 -1.2146606 15.380585 -6.152237" fill-rule="evenodd" />
  </g>
</svg>