<svg version="1.1" viewBox="405.43 174.022 19.3973 33.8879" fill="none" stroke="none" stroke-linecap="square" stroke-miterlimit="10" xmlns:xlink="http://www.w3.org/1999/xlink" xmlns="http://www.w3.org/2000/svg" width="19.3973" height="33.8879">
  <clipPath id="g13ac7986193_0_1159.0">
    <path d="m0 0l960.0 0l0 540.0l-960.0 0l0 -540.0z" clip-rule="nonzero" />
  </clipPath>
  <g clip-path="url(#g13ac7986193_0_1159.0)">
    <path fill="#000000" fill-opacity="0.0" d="m0 0l960.0 0l0 540.0l-960.0 0z" fill-rule="evenodd" />
    <path fill="#000000" d="m407.6052 195.57158c-0.1481018 -1.4231567 0.33813477 -2.8320007 1.2524109 -3.628708c0.9142456 -0.7966919 2.0961914 -0.8415375 3.0442505 -0.115478516c0.33584595 -0.82748413 0.950531 -1.3988037 1.6581116 -1.5411377c0.70758057 -0.14234924 1.4249878 0.16099548 1.9351807 0.8182831c0.2861023 -0.75024414 0.84783936 -1.2543182 1.4858704 -1.3333435c0.6380615 -0.07902527 1.262146 0.27819824 1.6507874 0.94487c0.5168457 -0.79525757 1.3392029 -1.1300964 2.1111755 -0.85961914c0.77197266 0.27046204 1.35495 1.0976715 1.4966736 2.1236725c0.63323975 0.2258606 1.1607056 0.8000183 1.4461365 1.5741425c0.2854309 0.7741089 0.30081177 1.6722565 0.042175293 2.4623566c0.6235657 1.061203 0.7694397 2.475235 0.3831787 3.7144165c-0.386261 1.2391815 -1.2466431 2.11734 -2.2600098 2.3067474c-0.0071411133 1.1630096 -0.49493408 2.2301788 -1.2753601 2.7901611c-0.780426 0.55999756 -1.7315979 0.5253601 -2.4869385 -0.090545654c-0.3217163 1.3929138 -1.2272644 2.417801 -2.325409 2.6318817c-1.098175 0.21408081 -2.192047 -0.42103577 -2.8090515 -1.6309357c-0.75634766 0.59635925 -1.6638794 0.76815796 -2.5178833 0.47662354c-0.8540039 -0.29153442 -1.5825806 -1.0218353 -2.0213318 -2.0261536c-0.77285767 0.118255615 -1.5201416 -0.40534973 -1.8709106 -1.3109436c-0.35079956 -0.9055939 -0.23043823 -2.0004272 0.30133057 -2.7411041c-0.6894226 -0.5305939 -1.0411987 -1.5834656 -0.8718872 -2.6095886c0.169281 -1.0261078 0.82128906 -1.7929535 1.6160278 -1.90065z" fill-rule="evenodd" />
    <path fill="#000000" fill-opacity="0.0" d="m406.8458 200.13666c0.3253479 0.25039673 0.7011719 0.3639679 1.0770569 0.3255005m0.4923401 3.7266388c0.16165161 -0.024734497 0.32009888 -0.07711792 0.47125244 -0.15577698m4.0677185 1.705246c-0.11367798 -0.22294617 -0.2088623 -0.46116638 -0.28393555 -0.7106323m5.4186096 -0.2903595c0.058654785 -0.25395203 0.09667969 -0.5153198 0.1133728 -0.7797394m3.6487732 -1.9197693c0.007598877 -1.2382202 -0.5302124 -2.371933 -1.3824768 -2.9141846m3.2593079 -3.106842c-0.138031 0.42163086 -0.34872437 0.7956543 -0.6156006 1.0927429m-0.8725891 -5.129364c0.023498535 0.17025757 0.03439331 0.34309387 0.03250122 0.51608276m-3.6402893 -1.7800751c-0.12893677 0.19837952 -0.23516846 0.4200592 -0.31536865 0.65815735m-2.8213196 -0.2697754c-0.068725586 0.18019104 -0.120025635 0.3708496 -0.15274048 0.5676117m-3.4406128 0.15525818c0.20062256 0.15362549 0.38623047 0.33854675 0.55270386 0.55067444m-4.849304 3.1935272c0.02041626 0.19615173 0.05267334 0.38987732 0.096466064 0.5793762" fill-rule="evenodd" />
    <path stroke="#ffffff" stroke-width="1.0" stroke-linejoin="round" stroke-linecap="butt" d="m407.6052 195.57158c-0.1481018 -1.4231567 0.33813477 -2.8320007 1.2524109 -3.628708c0.9142456 -0.7966919 2.0961914 -0.8415375 3.0442505 -0.115478516c0.33584595 -0.82748413 0.950531 -1.3988037 1.6581116 -1.5411377c0.70758057 -0.14234924 1.4249878 0.16099548 1.9351807 0.8182831c0.2861023 -0.75024414 0.84783936 -1.2543182 1.4858704 -1.3333435c0.6380615 -0.07902527 1.262146 0.27819824 1.6507874 0.94487c0.5168457 -0.79525757 1.3392029 -1.1300964 2.1111755 -0.85961914c0.77197266 0.27046204 1.35495 1.0976715 1.4966736 2.1236725c0.63323975 0.2258606 1.1607056 0.8000183 1.4461365 1.5741425c0.2854309 0.7741089 0.30081177 1.6722565 0.042175293 2.4623566c0.6235657 1.061203 0.7694397 2.475235 0.3831787 3.7144165c-0.386261 1.2391815 -1.2466431 2.11734 -2.2600098 2.3067474c-0.0071411133 1.1630096 -0.49493408 2.2301788 -1.2753601 2.7901611c-0.780426 0.55999756 -1.7315979 0.5253601 -2.4869385 -0.090545654c-0.3217163 1.3929138 -1.2272644 2.417801 -2.325409 2.6318817c-1.098175 0.21408081 -2.192047 -0.42103577 -2.8090515 -1.6309357c-0.75634766 0.59635925 -1.6638794 0.76815796 -2.5178833 0.47662354c-0.8540039 -0.29153442 -1.5825806 -1.0218353 -2.0213318 -2.0261536c-0.77285767 0.118255615 -1.5201416 -0.40534973 -1.8709106 -1.3109436c-0.35079956 -0.9055939 -0.23043823 -2.0004272 0.30133057 -2.7411041c-0.6894226 -0.5305939 -1.0411987 -1.5834656 -0.8718872 -2.6095886c0.169281 -1.0261078 0.82128906 -1.7929535 1.6160278 -1.90065z" fill-rule="evenodd" />
    <path stroke="#ffffff" stroke-width="1.0" stroke-linejoin="round" stroke-linecap="butt" d="m406.8458 200.13666c0.3253479 0.25039673 0.7011719 0.3639679 1.0770569 0.3255005m0.4923401 3.7266388c0.16165161 -0.024734497 0.32009888 -0.07711792 0.47125244 -0.15577698m4.0677185 1.705246c-0.11367798 -0.22294617 -0.2088623 -0.46116638 -0.28393555 -0.7106323m5.4186096 -0.2903595c0.058654785 -0.25395203 0.09667969 -0.5153198 0.1133728 -0.7797394m3.6487732 -1.9197693c0.007598877 -1.2382202 -0.5302124 -2.371933 -1.3824768 -2.9141846m3.2593079 -3.106842c-0.138031 0.42163086 -0.34872437 0.7956543 -0.6156006 1.0927429m-0.8725891 -5.129364c0.023498535 0.17025757 0.03439331 0.34309387 0.03250122 0.51608276m-3.6402893 -1.7800751c-0.12893677 0.19837952 -0.23516846 0.4200592 -0.31536865 0.65815735m-2.8213196 -0.2697754c-0.068725586 0.18019104 -0.120025635 0.3708496 -0.15274048 0.5676117m-3.4406128 0.15525818c0.20062256 0.15362549 0.38623047 0.33854675 0.55270386 0.55067444m-4.849304 3.1935272c0.02041626 0.19615173 0.05267334 0.38987732 0.096466064 0.5793762" fill-rule="evenodd" />
    <path fill="#000000" fill-opacity="0.0" d="m415.3719 192.35768c0 -1.4283295 -0.7857666 -5.629303 0 -8.569992c0.7857666 -2.940689 3.9288025 -7.5617676 4.714569 -9.074112" fill-rule="evenodd" />
    <path stroke="#ff0000" stroke-width="3.0" stroke-linejoin="round" stroke-linecap="butt" d="m415.3719 192.35768c0 -1.4283295 -0.7857666 -5.629303 0 -8.569992c0.7857666 -2.940689 3.9288025 -7.5617676 4.714569 -9.074112" fill-rule="evenodd" />
  </g>
</svg>