<svg version="1.1" viewBox="651.021 227.995 54.6239 62.3213" fill="none" stroke="none" stroke-linecap="square" stroke-miterlimit="10" xmlns:xlink="http://www.w3.org/1999/xlink" xmlns="http://www.w3.org/2000/svg" width="54.6239" height="62.3213">
  <clipPath id="g13ac7986193_0_1197.0">
    <path d="m0 0l960.0 0l0 540.0l-960.0 0l0 -540.0z" clip-rule="nonzero" />
  </clipPath>
  <g clip-path="url(#g13ac7986193_0_1197.0)">
    <path fill="#000000" fill-opacity="0.0" d="m0 0l960.0 0l0 540.0l-960.0 0z" fill-rule="evenodd" />
    <path fill="#38761d" d="m658.65063 256.38504c-1.1828613 -12.933029 8.243835 -24.418518 21.055115 -25.65355q11.59845 -1.118103 23.196838 -2.2362213q1.0708618 11.708664 2.1417236 23.417328c1.1828613 12.933044 -8.243835 24.418518 -21.055115 25.653534c-12.811218 1.2350464 -24.1557 -8.248047 -25.338562 -21.181091z" fill-rule="evenodd" />
    <path stroke="#595959" stroke-width="1.0" stroke-linejoin="round" stroke-linecap="butt" d="m658.65063 256.38504c-1.1828613 -12.933029 8.243835 -24.418518 21.055115 -25.65355q11.59845 -1.118103 23.196838 -2.2362213q1.0708618 11.708664 2.1417236 23.417328c1.1828613 12.933044 -8.243835 24.418518 -21.055115 25.653534c-12.811218 1.2350464 -24.1557 -8.248047 -25.338562 -21.181091z" fill-rule="evenodd" />
    <path fill="#000000" fill-opacity="0.0" d="m666.9593 272.2886l-11.2126465 14.330719" fill-rule="evenodd" />
    <path stroke="#00ff00" stroke-width="12.0" stroke-linejoin="round" stroke-linecap="butt" d="m666.9593 272.2886l-11.2126465 14.330719" fill-rule="evenodd" />
  </g>
</svg>