<svg version="1.1" viewBox="258.646 108.273 198.9754 90.9486" fill="none" stroke="none" stroke-linecap="square" stroke-miterlimit="10" xmlns:xlink="http://www.w3.org/1999/xlink" xmlns="http://www.w3.org/2000/svg" width="198.9754" height="90.9486">
  <clipPath id="g13ac7986193_0_1548.0">
    <path d="m0 0l960.0 0l0 540.0l-960.0 0l0 -540.0z" clip-rule="nonzero" />
  </clipPath>
  <g clip-path="url(#g13ac7986193_0_1548.0)">
    <path fill="#000000" fill-opacity="0.0" d="m0 0l960.0 0l0 540.0l-960.0 0z" fill-rule="evenodd" />
    <path fill="#f9cb9c" d="m371.989 157.4399l0.81777954 25.229446l8.555267 11.312408l3.7141418 -5.608185l-7.332306 -12.247818l1.3189697 -24.399582z" fill-rule="evenodd" />
    <path fill="#f9cb9c" d="m334.23615 165.95595l-5.9686584 21.415604l21.69043 4.475815l-2.781433 -4.472824l-14.768463 -4.610092l8.078217 -20.030304z" fill-rule="evenodd" />
    <path fill="#a25402" d="m297.39496 124.63649c5.001007 -14.759483 24.778015 -20.611511 44.173218 -13.070869c19.395203 7.5406494 31.063995 25.618477 26.062988 40.377953c-5.001007 14.759491 -24.778015 20.611511 -44.173218 13.070862c-19.395203 -7.540634 -31.063995 -25.618454 -26.062988 -40.377945z" fill-rule="evenodd" />
    <path fill="#dd7e6b" d="m326.46295 163.73087c-1.9667053 3.1919708 15.281311 3.2980194 21.084045 2.537918c5.8027344 -0.76008606 8.984955 -6.4934998 13.732391 -7.09848c4.7474365 -0.60498047 9.151184 3.4594727 14.752228 3.4686127c5.601013 0.009155273 12.952637 1.6407166 18.853943 -3.4137115c5.9012756 -5.054428 16.465515 -24.215729 16.553741 -26.912857c0.088256836 -2.6971283 -11.29306 7.3874207 -16.024323 10.730072c-4.731262 3.3426666 -6.3519287 8.646805 -12.36322 9.325897c-6.011322 0.6790924 -14.273071 -7.145096 -23.70456 -5.2513275c-9.4314575 1.893753 -30.917542 13.4219055 -32.884247 16.613876z" fill-rule="evenodd" />
    <path fill="#783f04" d="m347.4583 115.14208c4.7559204 -0.97824097 12.459106 12.845413 20.852905 12.620621c8.393799 -0.22478485 21.262054 -12.086662 29.509888 -13.969353c8.247803 -1.8826828 17.83908 -0.41752625 19.97705 2.6732101c2.1380005 3.090744 -2.9353943 9.878784 -7.1491394 15.871239c-4.213745 5.992447 -12.683136 16.36058 -18.13327 20.083466c-5.4501343 3.7228699 -6.7907715 1.4125977 -14.567596 2.2537994c-7.7768555 0.84121704 -25.731354 6.3006287 -32.093475 2.7934875c-6.362091 -3.5071564 -6.3463745 -16.781967 -6.0791016 -23.83638c0.26727295 -7.054413 2.9267883 -17.51184 7.6827393 -18.49009z" fill-rule="evenodd" />
    <path fill="#000000" fill-opacity="0.0" d="m299.76028 139.6929c-3.566864 0.5914917 -14.923798 4.936508 -21.401245 3.5489502c-6.477478 -1.3875427 -14.5529785 -9.895218 -17.463562 -11.874252" fill-rule="evenodd" />
    <path stroke="#f4cccc" stroke-width="8.0" stroke-linejoin="round" stroke-linecap="butt" d="m299.76028 139.6929c-3.566864 0.5914917 -14.923798 4.936508 -21.401245 3.5489502c-6.477478 -1.3875427 -14.5529785 -9.895218 -17.463562 -11.874252" fill-rule="evenodd" />
    <defs>
      <radialGradient id="g13ac7986193_0_1548.1" gradientUnits="userSpaceOnUse" gradientTransform="matrix(7.876693792349987 3.0616639264317222 -3.0616639264317222 7.876693792349987 0.0 0.0)" spreadMethod="pad" cx="49.60492077432585" cy="-5.677790909818262" fx="49.60492077432585" fy="-5.677790909818262" r="7.8766937255859375">
        <stop offset="0.0" stop-color="#783f04" />
        <stop offset="1.0" stop-color="#b45f06" />
      </radialGradient>
    </defs>
    <path fill="url(#g13ac7986193_0_1548.1)" d="m413.16187 142.17738l3.979889 -2.0133972l20.1008 7.2030334l3.168335 -2.5315704l6.468689 2.0046387l5.9260254 -2.8845978l4.406616 -3.2724457l-1.508728 -3.332016l-5.645874 -4.4323273l-10.753937 -11.098061l-26.055298 -12.670525l-6.9279175 2.5955505l-0.80303955 25.73227l5.934784 6.172287z" fill-rule="evenodd" />
    <path fill="#000000" d="m421.41293 123.971535c1.0001831 -2.9571152 4.010803 -4.5012054 6.7243958 -3.448822c1.3031006 0.5053711 2.36203 1.5541611 2.9438477 2.9156494c0.5818176 1.3614807 0.63882446 2.924141 0.1585083 4.3441925c-1.0001831 2.9571152 -4.010803 4.501213 -6.7243958 3.4488144c-2.7135925 -1.0523834 -4.1025696 -4.302719 -3.102356 -7.2598343z" fill-rule="evenodd" />
    <path stroke="#595959" stroke-width="1.0" stroke-linejoin="round" stroke-linecap="butt" d="m421.41293 123.971535c1.0001831 -2.9571152 4.010803 -4.5012054 6.7243958 -3.448822c1.3031006 0.5053711 2.36203 1.5541611 2.9438477 2.9156494c0.5818176 1.3614807 0.63882446 2.924141 0.1585083 4.3441925c-1.0001831 2.9571152 -4.010803 4.501213 -6.7243958 3.4488144c-2.7135925 -1.0523834 -4.1025696 -4.302719 -3.102356 -7.2598343z" fill-rule="evenodd" />
    <path fill="#f4cccc" d="m457.12167 140.59102l-3.4209595 2.7187042l-2.518036 1.6848145l-3.0884705 0.9617615l5.2626038 -10.480484l2.3417053 2.0175476z" fill-rule="evenodd" />
    <path stroke="#f4cccc" stroke-width="1.0" stroke-linejoin="round" stroke-linecap="butt" d="m457.12167 140.59102l-3.4209595 2.7187042l-2.518036 1.6848145l-3.0884705 0.9617615l5.2626038 -10.480484l2.3417053 2.0175476z" fill-rule="evenodd" />
    <defs>
      <linearGradient id="g13ac7986193_0_1548.2" gradientUnits="userSpaceOnUse" gradientTransform="matrix(7.215449054140514 0.0 0.0 7.215449054140514 0.0 0.0)" spreadMethod="pad" x1="53.57078618987636" y1="20.395042110193216" x2="53.570757771341086" y2="27.610491164277768">
        <stop offset="0.0" stop-color="#b45f06" />
        <stop offset="0.17" stop-color="#dd7e6b" />
        <stop offset="1.0" stop-color="#f9cb9c" />
      </linearGradient>
    </defs>
    <path fill="url(#g13ac7986193_0_1548.2)" d="m386.53726 153.63924l2.8020325 31.042847l12.691437 14.540024l4.8176575 -6.6049805l-11.0451355 -15.5959015l0.2364502 -29.861755z" fill-rule="evenodd" />
  </g>
</svg>