<svg version="1.1" viewBox="875.172 156.991 43.6791999999999 74.6813" fill="none" stroke="none" stroke-linecap="square" stroke-miterlimit="10" xmlns:xlink="http://www.w3.org/1999/xlink" xmlns="http://www.w3.org/2000/svg" width="43.6791999999999" height="74.6813">
  <clipPath id="g13ac7986193_0_1408.0">
    <path d="m0 0l960.0 0l0 540.0l-960.0 0l0 -540.0z" clip-rule="nonzero" />
  </clipPath>
  <g clip-path="url(#g13ac7986193_0_1408.0)">
    <path fill="#000000" fill-opacity="0.0" d="m0 0l960.0 0l0 540.0l-960.0 0z" fill-rule="evenodd" />
    <path fill="#666666" d="m875.6715 173.1385c0 2.8684082 9.301147 5.193695 20.77478 5.193695c11.473572 0 20.77478 -2.3252869 20.77478 -5.193695l0 52.83989c0 2.868393 -9.3012085 5.193695 -20.77478 5.193695c-11.473633 0 -20.77478 -2.3253021 -20.77478 -5.193695z" fill-rule="evenodd" />
    <path fill="#a3a3a3" d="m875.6715 173.1385c0 -2.868393 9.301147 -5.193695 20.77478 -5.193695c11.473572 0 20.77478 2.3253021 20.77478 5.193695c0 2.8684082 -9.3012085 5.193695 -20.77478 5.193695c-11.473633 0 -20.77478 -2.3252869 -20.77478 -5.193695z" fill-rule="evenodd" />
    <path fill="#000000" fill-opacity="0.0" d="m917.22107 173.1385c0 2.8684082 -9.3012085 5.193695 -20.77478 5.193695c-11.473633 0 -20.77478 -2.3252869 -20.77478 -5.193695c0 -2.868393 9.301147 -5.193695 20.77478 -5.193695c11.473572 0 20.77478 2.3253021 20.77478 5.193695l0 52.83989c0 2.868393 -9.3012085 5.193695 -20.77478 5.193695c-11.473633 0 -20.77478 -2.3253021 -20.77478 -5.193695l0 -52.83989" fill-rule="evenodd" />
    <path stroke="#595959" stroke-width="1.0" stroke-linejoin="round" stroke-linecap="butt" d="m917.22107 173.1385c0 2.8684082 -9.3012085 5.193695 -20.77478 5.193695c-11.473633 0 -20.77478 -2.3252869 -20.77478 -5.193695c0 -2.868393 9.301147 -5.193695 20.77478 -5.193695c11.473572 0 20.77478 2.3253021 20.77478 5.193695l0 52.83989c0 2.868393 -9.3012085 5.193695 -20.77478 5.193695c-11.473633 0 -20.77478 -2.3253021 -20.77478 -5.193695l0 -52.83989" fill-rule="evenodd" />
    <defs>
      <radialGradient id="g13ac7986193_0_1408.1" gradientUnits="userSpaceOnUse" gradientTransform="matrix(3.815160552186496 0.0 0.0 3.815160552186496 0.0 0.0)" spreadMethod="pad" cx="239.36424853328356" cy="51.20925007999541" fx="239.36424853328356" fy="51.20925007999541" r="3.8151605129241943">
        <stop offset="0.0" stop-color="#8c8c8c" />
        <stop offset="1.0" stop-color="#404040" />
      </radialGradient>
    </defs>
    <path fill="url(#g13ac7986193_0_1408.1)" d="m916.71735 182.24384c1.5387573 2.7430267 2.1296997 24.947235 0.70910645 26.645065c-1.4206543 1.697815 -9.114624 -12.017288 -9.232788 -16.45813c-0.11816406 -4.4408417 6.9848633 -12.929947 8.523682 -10.186935z" fill-rule="evenodd" />
    <path stroke="#595959" stroke-width="1.0" stroke-linejoin="round" stroke-linecap="butt" d="m916.71735 182.24384c1.5387573 2.7430267 2.1296997 24.947235 0.70910645 26.645065c-1.4206543 1.697815 -9.114624 -12.017288 -9.232788 -16.45813c-0.11816406 -4.4408417 6.9848633 -12.929947 8.523682 -10.186935z" fill-rule="evenodd" />
    <path fill="#0000ff" d="m875.67395 169.52231c0 -6.644806 9.55365 -12.031494 21.338623 -12.031494c11.784973 0 21.338562 5.386688 21.338562 12.031494c0 6.644806 -9.553589 12.031494 -21.338562 12.031494c-11.784973 0 -21.338623 -5.386688 -21.338623 -12.031494z" fill-rule="evenodd" />
    <path stroke="#000000" stroke-width="1.0" stroke-linejoin="round" stroke-linecap="butt" d="m875.67395 169.52231c0 -6.644806 9.55365 -12.031494 21.338623 -12.031494c11.784973 0 21.338562 5.386688 21.338562 12.031494c0 6.644806 -9.553589 12.031494 -21.338562 12.031494c-11.784973 0 -21.338623 -5.386688 -21.338623 -12.031494z" fill-rule="evenodd" />
  </g>
</svg>